<svg width="126" height="26" viewBox="0 0 126 26" fill="none" xmlns="http://www.w3.org/2000/svg">
<rect width="19" height="23" fill="#1C1B1B"/>
<path d="M2.66406 21V5.6H6.20606V15.632L13.5541 5.6H16.8981V21H13.3781V10.99L6.03006 21H2.66406Z" fill="#FFF8F8"/>
<path d="M20.4684 21V9.164H23.8784V13.784H29.0264V9.164H32.4584V21H29.0264V16.578H23.8784V21H20.4684ZM38.2738 21V11.188L39.0438 11.98H34.2698V9.164H45.6878V11.98H40.9138L41.6838 11.188V21H38.2738ZM52.8091 21.176C51.4598 21.176 50.2718 20.912 49.2451 20.384C48.2331 19.856 47.4484 19.1373 46.8911 18.228C46.3338 17.304 46.0551 16.2553 46.0551 15.082C46.0551 13.894 46.3264 12.8453 46.8691 11.936C47.4264 11.012 48.1818 10.2933 49.1351 9.78C50.0884 9.252 51.1664 8.988 52.3691 8.988C53.5278 8.988 54.5691 9.23733 55.4931 9.736C56.4318 10.22 57.1724 10.924 57.7151 11.848C58.2578 12.7573 58.5291 13.85 58.5291 15.126C58.5291 15.258 58.5218 15.412 58.5071 15.588C58.4924 15.7493 58.4778 15.9033 58.4631 16.05H48.8491V14.048H56.6591L55.3391 14.642C55.3391 14.026 55.2144 13.4907 54.9651 13.036C54.7158 12.5813 54.3711 12.2293 53.9311 11.98C53.4911 11.716 52.9778 11.584 52.3911 11.584C51.8044 11.584 51.2838 11.716 50.8291 11.98C50.3891 12.2293 50.0444 12.5887 49.7951 13.058C49.5458 13.5127 49.4211 14.0553 49.4211 14.686V15.214C49.4211 15.8593 49.5604 16.4313 49.8391 16.93C50.1324 17.414 50.5358 17.788 51.0491 18.052C51.5771 18.3013 52.1931 18.426 52.8971 18.426C53.5278 18.426 54.0778 18.3307 54.5471 18.14C55.0311 17.9493 55.4711 17.6633 55.8671 17.282L57.6931 19.262C57.1504 19.878 56.4684 20.3547 55.6471 20.692C54.8258 21.0147 53.8798 21.176 52.8091 21.176ZM68.1338 21.176C67.1365 21.176 66.2638 20.956 65.5158 20.516C64.7678 20.076 64.1812 19.4087 63.7558 18.514C63.3452 17.6047 63.1398 16.4607 63.1398 15.082C63.1398 13.6887 63.3378 12.5447 63.7338 11.65C64.1298 10.7553 64.7018 10.088 65.4498 9.648C66.1978 9.208 67.0925 8.988 68.1338 8.988C69.2485 8.988 70.2458 9.24467 71.1258 9.758C72.0205 10.2567 72.7245 10.9607 73.2378 11.87C73.7658 12.7793 74.0298 13.85 74.0298 15.082C74.0298 16.3287 73.7658 17.4067 73.2378 18.316C72.7245 19.2253 72.0205 19.9293 71.1258 20.428C70.2458 20.9267 69.2485 21.176 68.1338 21.176ZM61.1378 25.268V9.164H64.4158V11.584L64.3498 15.104L64.5698 18.602V25.268H61.1378ZM67.5398 18.36C68.1118 18.36 68.6178 18.228 69.0578 17.964C69.5125 17.7 69.8718 17.326 70.1358 16.842C70.4145 16.3433 70.5538 15.7567 70.5538 15.082C70.5538 14.3927 70.4145 13.806 70.1358 13.322C69.8718 12.838 69.5125 12.464 69.0578 12.2C68.6178 11.936 68.1118 11.804 67.5398 11.804C66.9678 11.804 66.4545 11.936 65.9998 12.2C65.5452 12.464 65.1858 12.838 64.9218 13.322C64.6578 13.806 64.5258 14.3927 64.5258 15.082C64.5258 15.7567 64.6578 16.3433 64.9218 16.842C65.1858 17.326 65.5452 17.7 65.9998 17.964C66.4545 18.228 66.9678 18.36 67.5398 18.36ZM82.8372 12.948C84.3919 12.9627 85.5726 13.3147 86.3792 14.004C87.2006 14.6787 87.6112 15.6393 87.6112 16.886C87.6112 18.1913 87.1492 19.2107 86.2252 19.944C85.3012 20.6627 84.0179 21.022 82.3752 21.022L76.4352 21V9.164H79.8452V12.948H82.8372ZM82.0672 18.58C82.7272 18.5947 83.2332 18.4553 83.5852 18.162C83.9372 17.8687 84.1132 17.4287 84.1132 16.842C84.1132 16.2553 83.9372 15.8373 83.5852 15.588C83.2332 15.324 82.7272 15.1847 82.0672 15.17L79.8452 15.148V18.58H82.0672ZM95.5415 21.176C94.1922 21.176 93.0042 20.912 91.9775 20.384C90.9655 19.856 90.1809 19.1373 89.6235 18.228C89.0662 17.304 88.7875 16.2553 88.7875 15.082C88.7875 13.894 89.0589 12.8453 89.6015 11.936C90.1589 11.012 90.9142 10.2933 91.8675 9.78C92.8209 9.252 93.8989 8.988 95.1015 8.988C96.2602 8.988 97.3015 9.23733 98.2255 9.736C99.1642 10.22 99.9049 10.924 100.448 11.848C100.99 12.7573 101.262 13.85 101.262 15.126C101.262 15.258 101.254 15.412 101.24 15.588C101.225 15.7493 101.21 15.9033 101.196 16.05H91.5815V14.048H99.3915L98.0715 14.642C98.0715 14.026 97.9469 13.4907 97.6975 13.036C97.4482 12.5813 97.1035 12.2293 96.6635 11.98C96.2235 11.716 95.7102 11.584 95.1235 11.584C94.5369 11.584 94.0162 11.716 93.5615 11.98C93.1215 12.2293 92.7769 12.5887 92.5275 13.058C92.2782 13.5127 92.1535 14.0553 92.1535 14.686V15.214C92.1535 15.8593 92.2929 16.4313 92.5715 16.93C92.8649 17.414 93.2682 17.788 93.7815 18.052C94.3095 18.3013 94.9255 18.426 95.6295 18.426C96.2602 18.426 96.8102 18.3307 97.2795 18.14C97.7635 17.9493 98.2035 17.6633 98.5995 17.282L100.426 19.262C99.8829 19.878 99.2009 20.3547 98.3795 20.692C97.5582 21.0147 96.6122 21.176 95.5415 21.176ZM110.866 21.176C109.869 21.176 108.996 20.956 108.248 20.516C107.5 20.076 106.914 19.4087 106.488 18.514C106.078 17.6047 105.872 16.4607 105.872 15.082C105.872 13.6887 106.07 12.5447 106.466 11.65C106.862 10.7553 107.434 10.088 108.182 9.648C108.93 9.208 109.825 8.988 110.866 8.988C111.981 8.988 112.978 9.24467 113.858 9.758C114.753 10.2567 115.457 10.9607 115.97 11.87C116.498 12.7793 116.762 13.85 116.762 15.082C116.762 16.3287 116.498 17.4067 115.97 18.316C115.457 19.2253 114.753 19.9293 113.858 20.428C112.978 20.9267 111.981 21.176 110.866 21.176ZM103.87 25.268V9.164H107.148V11.584L107.082 15.104L107.302 18.602V25.268H103.87ZM110.272 18.36C110.844 18.36 111.35 18.228 111.79 17.964C112.245 17.7 112.604 17.326 112.868 16.842C113.147 16.3433 113.286 15.7567 113.286 15.082C113.286 14.3927 113.147 13.806 112.868 13.322C112.604 12.838 112.245 12.464 111.79 12.2C111.35 11.936 110.844 11.804 110.272 11.804C109.7 11.804 109.187 11.936 108.732 12.2C108.278 12.464 107.918 12.838 107.654 13.322C107.39 13.806 107.258 14.3927 107.258 15.082C107.258 15.7567 107.39 16.3433 107.654 16.842C107.918 17.326 108.278 17.7 108.732 17.964C109.187 18.228 109.7 18.36 110.272 18.36Z" fill="#555555"/>
</svg>
