<svg width="17" height="18" viewBox="0 0 17 18" fill="none" xmlns="http://www.w3.org/2000/svg">
<path d="M11.0218 12.791C9.88081 13.6118 8.48534 14.0952 6.97734 14.0952C3.12421 14.0952 0 10.9395 0 7.04758C0 3.15566 3.12421 0 6.97734 0C10.8305 0 13.9547 3.15566 13.9547 7.04758C13.9547 8.99362 13.1741 10.7555 11.9108 12.0309L16.8336 17.0033C17.0594 17.2313 17.0537 17.597 16.827 17.8257C16.5989 18.0561 16.2359 18.0578 16.0128 17.8324L11.021 12.7903L11.0218 12.791ZM6.97734 13.266C10.3773 13.266 13.1338 10.4818 13.1338 7.04758C13.1338 3.61338 10.3773 0.829127 6.97734 0.829127C3.57737 0.829127 0.820864 3.61338 0.820864 7.04758C0.820864 10.4818 3.57737 13.266 6.97734 13.266Z" fill="#1B1A1A"/>
</svg>
